<mxfile host="app.diagrams.net" agent="Mozilla/5.0 (Windows NT 10.0; Win64; x64) AppleWebKit/537.36 (KHTML, like Gecko) Chrome/129.0.0.0 Safari/537.36" version="24.7.17">
  <diagram name="Page-1" id="ZJ-zeW2QMhQS8fQ9yKEQ">
    <mxGraphModel grid="1" page="1" gridSize="10" guides="1" tooltips="1" connect="1" arrows="1" fold="1" pageScale="1" pageWidth="850" pageHeight="1100" math="0" shadow="0">
      <root>
        <mxCell id="0" />
        <mxCell id="1" parent="0" />
        <mxCell id="wLkCcIuSiROHrK9T2TYF-4" value="Admin" style="shape=umlActor;verticalLabelPosition=bottom;verticalAlign=top;html=1;" vertex="1" parent="1">
          <mxGeometry x="210" y="300" width="30" height="60" as="geometry" />
        </mxCell>
        <mxCell id="wLkCcIuSiROHrK9T2TYF-10" value="User" style="shape=umlActor;verticalLabelPosition=bottom;verticalAlign=top;html=1;" vertex="1" parent="1">
          <mxGeometry x="60" y="268" width="30" height="60" as="geometry" />
        </mxCell>
        <mxCell id="wLkCcIuSiROHrK9T2TYF-16" value="Shop" style="shape=umlActor;verticalLabelPosition=bottom;verticalAlign=top;html=1;" vertex="1" parent="1">
          <mxGeometry x="180" y="178" width="30" height="60" as="geometry" />
        </mxCell>
        <mxCell id="wLkCcIuSiROHrK9T2TYF-19" value=" Guest" style="shape=umlActor;verticalLabelPosition=bottom;verticalAlign=top;html=1;" vertex="1" parent="1">
          <mxGeometry x="670" y="250" width="30" height="60" as="geometry" />
        </mxCell>
        <mxCell id="wLkCcIuSiROHrK9T2TYF-23" value="" style="endArrow=open;endFill=1;endSize=12;html=1;rounded=0;exitX=1;exitY=1;exitDx=0;exitDy=0;exitPerimeter=0;" edge="1" parent="1" source="wLkCcIuSiROHrK9T2TYF-10">
          <mxGeometry width="160" relative="1" as="geometry">
            <mxPoint x="280" y="340" as="sourcePoint" />
            <mxPoint x="210" y="330" as="targetPoint" />
            <Array as="points" />
          </mxGeometry>
        </mxCell>
        <mxCell id="wLkCcIuSiROHrK9T2TYF-27" value="" style="html=1;whiteSpace=wrap;" vertex="1" parent="1">
          <mxGeometry x="350" y="175" width="210" height="210" as="geometry" />
        </mxCell>
        <mxCell id="wLkCcIuSiROHrK9T2TYF-28" value="System" style="text;align=center;fontStyle=1;verticalAlign=middle;spacingLeft=3;spacingRight=3;strokeColor=none;rotatable=0;points=[[0,0.5],[1,0.5]];portConstraint=eastwest;html=1;" vertex="1" parent="1">
          <mxGeometry x="415" y="184" width="80" height="26" as="geometry" />
        </mxCell>
        <mxCell id="wLkCcIuSiROHrK9T2TYF-31" value="Koi Care at home" style="ellipse;whiteSpace=wrap;html=1;" vertex="1" parent="1">
          <mxGeometry x="385" y="240" width="140" height="70" as="geometry" />
        </mxCell>
        <mxCell id="wLkCcIuSiROHrK9T2TYF-36" value="visit" style="text;html=1;align=center;verticalAlign=middle;resizable=0;points=[];autosize=1;strokeColor=none;fillColor=none;" vertex="1" parent="1">
          <mxGeometry x="600" y="290" width="40" height="30" as="geometry" />
        </mxCell>
        <mxCell id="wLkCcIuSiROHrK9T2TYF-38" value="" style="endArrow=open;endFill=1;endSize=12;html=1;rounded=0;" edge="1" parent="1">
          <mxGeometry width="160" relative="1" as="geometry">
            <mxPoint x="670" y="280" as="sourcePoint" />
            <mxPoint x="570" y="280" as="targetPoint" />
            <Array as="points">
              <mxPoint x="620" y="280" />
            </Array>
          </mxGeometry>
        </mxCell>
        <mxCell id="wLkCcIuSiROHrK9T2TYF-41" value="manage     " style="text;html=1;align=center;verticalAlign=middle;resizable=0;points=[];autosize=1;strokeColor=none;fillColor=none;rotation=0;" vertex="1" parent="1">
          <mxGeometry x="110" y="340" width="70" height="30" as="geometry" />
        </mxCell>
        <mxCell id="wLkCcIuSiROHrK9T2TYF-49" value="manage" style="text;html=1;align=center;verticalAlign=middle;resizable=0;points=[];autosize=1;strokeColor=none;fillColor=none;" vertex="1" parent="1">
          <mxGeometry x="250" y="200" width="70" height="30" as="geometry" />
        </mxCell>
        <mxCell id="wLkCcIuSiROHrK9T2TYF-50" value="manage" style="text;html=1;align=center;verticalAlign=middle;resizable=0;points=[];autosize=1;strokeColor=none;fillColor=none;" vertex="1" parent="1">
          <mxGeometry x="260" y="330" width="70" height="30" as="geometry" />
        </mxCell>
        <mxCell id="wLkCcIuSiROHrK9T2TYF-51" value="" style="endArrow=open;endFill=1;endSize=12;html=1;rounded=0;" edge="1" parent="1">
          <mxGeometry width="160" relative="1" as="geometry">
            <mxPoint x="210" y="196.5" as="sourcePoint" />
            <mxPoint x="350" y="197" as="targetPoint" />
          </mxGeometry>
        </mxCell>
        <mxCell id="wLkCcIuSiROHrK9T2TYF-52" value="" style="endArrow=open;endFill=1;endSize=12;html=1;rounded=0;" edge="1" parent="1">
          <mxGeometry width="160" relative="1" as="geometry">
            <mxPoint x="250" y="320" as="sourcePoint" />
            <mxPoint x="340" y="320" as="targetPoint" />
          </mxGeometry>
        </mxCell>
      </root>
    </mxGraphModel>
  </diagram>
</mxfile>
